<?xml version="1.0" standalone="no"?>
<!DOCTYPE svg PUBLIC "-//W3C//DTD SVG 20010904//EN"
 "http://www.w3.org/TR/2001/REC-SVG-20010904/DTD/svg10.dtd">
<svg version="1.0" xmlns="http://www.w3.org/2000/svg"
 width="1058.000000pt" height="596.000000pt" viewBox="0 0 1058.000000 596.000000"
 preserveAspectRatio="xMidYMid meet">

<g transform="translate(0.000000,596.000000) scale(0.100000,-0.100000)"
fill="#000000" stroke="none">
<path d="M0 2980 l0 -2980 1122 2 c751 2 1122 6 1125 13 2 6 -94 107 -212 225
l-215 215 0 364 0 364 51 54 51 54 -6 162 c-5 145 -9 206 -14 245 -1 6 -13 12
-27 12 -24 0 -25 -3 -25 -60 0 -46 -3 -60 -15 -60 -10 0 -15 15 -17 58 -3 54
-5 57 -30 60 -26 3 -27 2 -30 -54 -4 -78 -28 -87 -28 -10 0 43 -4 57 -17 64
-32 17 -43 3 -43 -53 0 -54 -15 -79 -31 -54 -5 8 -9 36 -9 62 0 44 -2 48 -22
45 -20 -3 -24 -10 -29 -68 -4 -36 -7 -132 -8 -213 l-1 -148 45 -43 45 -44 0
-369 0 -369 -37 -35 -38 -34 32 35 33 36 0 360 0 359 -49 53 -48 53 -6 206
c-5 212 -13 249 -43 209 -8 -11 -14 -40 -14 -64 0 -36 -3 -43 -17 -40 -13 2
-20 16 -24 46 -7 55 -25 74 -37 41 -16 -41 -32 -190 -32 -300 l0 -105 70 -70
70 -69 0 -197 c0 -195 0 -197 24 -215 37 -30 41 -59 12 -88 -30 -30 -36 -31
-70 -4 -33 26 -33 53 -1 83 l25 23 0 194 -1 194 -69 70 -70 70 -1 155 c-1 85
-4 184 -8 220 -5 56 -9 65 -26 65 -17 0 -21 -9 -26 -65 -4 -36 -7 -98 -8 -139
-1 -67 1 -75 24 -93 14 -11 25 -29 25 -41 -1 -56 -67 -80 -102 -37 -25 31 -23
46 13 77 30 27 30 29 25 98 -15 195 -17 203 -37 208 -10 3 -22 0 -25 -5 -4 -6
-10 -133 -13 -281 l-6 -271 -122 124 -123 125 0 97 c0 53 -3 104 -7 114 -4 12
-3 15 5 10 8 -5 12 -43 12 -112 l0 -106 102 -99 c56 -54 108 -99 115 -99 11 0
13 34 9 188 -3 103 -5 210 -6 238 0 61 -11 76 -72 98 -65 24 -128 108 -128
170 0 29 -16 36 -81 36 -27 0 -49 5 -49 10 0 6 27 10 60 10 47 0 62 4 67 16
12 32 -11 49 -71 52 -71 4 -74 22 -3 22 60 0 80 10 75 36 -2 15 -15 20 -62 24
-70 6 -92 30 -27 30 55 0 93 16 89 38 -2 13 -16 18 -63 22 -44 4 -60 9 -60 20
0 11 15 16 58 20 60 5 63 7 54 40 -4 17 -14 20 -62 20 -41 0 -56 3 -52 13 2 7
23 12 57 12 38 0 56 5 63 17 19 29 -8 48 -69 48 -30 0 -54 5 -54 10 0 6 24 10
53 10 60 0 80 10 75 36 -2 15 -15 20 -62 24 -79 7 -89 30 -14 30 56 0 78 12
78 42 0 14 -11 18 -62 20 -48 2 -63 7 -63 18 0 11 16 16 60 20 48 4 61 9 63
24 5 26 -15 36 -75 36 -71 0 -68 18 3 22 60 3 83 20 71 52 -5 12 -20 16 -67
16 -33 0 -60 4 -60 10 0 6 15 10 34 10 18 0 48 3 65 6 27 6 32 11 29 33 -3 24
-7 26 -62 31 -87 7 -87 30 -1 30 l66 0 -3 28 c-3 26 -6 27 -58 28 -79 2 -82 2
-78 20 2 13 16 17 68 18 55 1 65 4 68 20 6 31 -12 38 -77 30 -42 -4 -61 -11
-61 -20 0 -21 -27 -17 -33 5 -2 11 -15 21 -28 23 l-24 3 0 184 c0 141 3 185
13 187 7 1 8 0 2 -3 -12 -6 -14 -312 -2 -331 6 -8 42 -14 105 -16 l97 -4 26
54 c28 60 82 110 128 120 48 10 56 22 56 81 0 76 24 67 28 -10 3 -56 4 -57 32
-57 30 0 30 0 30 60 0 77 18 79 22 3 3 -57 3 -58 36 -61 l32 -3 0 60 c0 34 4
61 10 61 6 0 10 -21 10 -47 0 -59 10 -76 41 -71 l24 3 3 426 2 426 -85 84 -85
84 2 215 3 215 2 -210 3 -211 85 -84 85 -85 0 -367 c0 -234 4 -369 10 -373 6
-3 10 -33 10 -66 0 -56 1 -59 25 -59 22 0 24 4 27 57 2 46 7 59 21 61 15 3 17
-5 17 -58 0 -61 0 -61 28 -58 26 3 27 6 30 61 4 77 26 72 30 -7 3 -56 4 -57
30 -54 25 3 27 6 30 61 2 42 7 57 17 57 12 0 15 -14 15 -61 0 -60 0 -60 28
-57 26 3 27 6 30 61 2 42 7 57 17 57 12 0 15 -14 15 -60 0 -57 1 -60 24 -60
28 0 36 16 36 76 0 32 4 44 15 44 12 0 15 -13 15 -60 0 -57 1 -60 24 -60 13 0
27 7 30 16 3 9 6 198 6 420 0 245 4 413 10 424 5 10 46 55 90 100 l80 83 0
215 c0 214 0 214 -25 244 -36 43 -33 73 11 96 18 10 27 8 48 -9 33 -26 34 -62
1 -87 l-25 -20 0 -227 0 -227 -85 -83 -85 -82 0 -340 c0 -187 3 -381 7 -432 6
-92 6 -92 32 -89 l26 3 3 249 2 248 -25 24 c-14 13 -25 32 -25 42 0 47 88 73
110 33 17 -32 11 -60 -15 -77 -25 -16 -25 -17 -25 -179 0 -89 3 -203 7 -254 6
-92 6 -92 32 -89 24 3 26 7 29 61 2 42 7 57 17 57 12 0 15 -14 15 -60 0 -57 1
-60 24 -60 13 0 27 7 30 17 4 9 9 125 13 257 l6 241 103 103 102 102 534 0
533 0 128 128 c122 122 127 129 121 160 -8 41 17 72 57 72 30 0 59 -31 59 -62
0 -27 -36 -58 -67 -58 -21 0 -55 -28 -158 -130 l-132 -130 -534 0 -534 0 -103
-103 -102 -102 0 -150 c0 -83 3 -193 6 -246 l7 -97 37 -11 c72 -21 130 -79
153 -152 4 -13 27 -17 112 -23 58 -4 110 -4 115 -1 6 4 10 68 10 149 l0 142
-115 112 c-63 61 -115 117 -115 125 0 7 35 47 78 90 l78 77 296 1 297 1 22 24
c29 30 83 33 99 5 17 -34 12 -68 -15 -85 -33 -22 -39 -21 -77 12 l-33 29 -284
1 -284 2 -81 -80 -81 -79 118 -118 117 -118 0 -152 0 -151 -62 -6 c-35 -4 -91
-9 -126 -12 -58 -5 -63 -8 -60 -27 3 -20 10 -22 66 -25 53 -3 63 -6 60 -20 -3
-13 -16 -18 -66 -20 -58 -3 -62 -4 -62 -27 0 -24 3 -25 65 -25 50 0 65 -3 65
-15 0 -10 -16 -15 -62 -17 -60 -3 -63 -4 -66 -30 l-3 -28 65 0 c51 0 66 -3 66
-15 0 -10 -16 -15 -62 -17 -60 -3 -63 -4 -63 -28 0 -23 4 -25 60 -30 44 -4 60
-9 60 -20 0 -11 -15 -16 -63 -18 -59 -3 -63 -5 -60 -25 3 -20 10 -22 66 -25
54 -3 62 -6 62 -22 0 -18 -7 -20 -65 -20 -63 0 -65 -1 -65 -25 0 -24 2 -25 65
-25 58 0 65 -2 65 -20 0 -16 -8 -19 -62 -22 -56 -3 -63 -5 -66 -25 -3 -20 1
-22 60 -25 48 -2 63 -7 63 -18 0 -11 -16 -16 -60 -20 -52 -4 -60 -8 -63 -27
-3 -20 1 -22 60 -25 48 -2 63 -7 63 -18 0 -11 -15 -16 -63 -18 -59 -3 -63 -5
-60 -25 3 -19 11 -23 63 -27 46 -4 61 -9 63 -22 3 -14 -7 -17 -60 -20 -57 -3
-63 -5 -66 -25 -3 -22 0 -23 62 -23 59 0 66 -2 66 -20 0 -16 -8 -19 -62 -22
-56 -3 -63 -5 -66 -25 -3 -20 1 -22 60 -25 48 -2 63 -7 63 -18 0 -11 -16 -16
-60 -20 -56 -5 -60 -7 -60 -30 0 -24 3 -25 57 -26 32 0 60 -3 64 -6 16 -16
-12 -28 -65 -28 l-59 0 -7 -37 c-16 -88 -75 -155 -151 -171 l-39 -8 -6 -94
c-11 -160 -10 -398 2 -405 5 -4 55 39 110 95 l99 102 0 102 0 101 140 140 140
140 0 267 0 267 -25 25 c-14 14 -25 32 -25 41 0 22 45 65 68 65 49 0 73 -79
33 -111 -20 -17 -21 -24 -21 -285 l0 -269 -147 -148 -148 -147 0 -100 0 -100
-120 -120 -120 -120 -7 207 c-11 334 -15 361 -50 348 -12 -5 -17 -33 -23 -135
-7 -137 -4 -161 26 -191 19 -19 25 -55 11 -75 -4 -6 -17 -16 -30 -23 -48 -25
-98 38 -68 84 9 14 21 25 26 25 6 0 10 59 10 149 0 153 -7 179 -42 166 -18 -7
-28 -122 -28 -322 l0 -133 -70 -71 -70 -72 0 -177 0 -178 25 -16 c46 -30 23
-106 -33 -106 -19 0 -62 42 -62 61 0 5 14 24 30 42 l30 35 0 178 0 177 70 73
70 72 -1 123 c-1 184 -12 298 -28 308 -29 18 -41 1 -41 -61 0 -51 -2 -59 -18
-56 -13 3 -17 14 -18 43 -1 70 -3 75 -27 75 -23 0 -24 -4 -30 -98 -4 -53 -7
-151 -7 -217 l0 -119 -47 -48 -47 -48 -4 -339 c-3 -187 -2 -351 2 -365 3 -13
99 -119 215 -235 193 -196 210 -211 237 -205 21 4 35 0 51 -15 22 -21 30 -21
523 -21 l500 0 0 125 0 126 -82 79 -82 78 -90 7 c-82 7 -91 6 -106 -12 -29
-37 -58 -46 -85 -29 -32 21 -40 52 -21 81 23 34 70 34 92 0 16 -24 21 -25 117
-25 l102 0 70 -69 70 -70 37 40 37 39 -22 21 c-12 11 -55 49 -95 82 -71 60
-73 63 -67 97 5 26 15 771 15 1080 0 19 6 20 164 20 133 0 167 3 180 15 11 12
40 15 124 15 118 0 122 2 122 55 0 36 -28 45 -139 45 -56 0 -103 4 -106 10 -3
5 -44 10 -90 10 -46 0 -87 5 -90 10 -4 6 26 10 84 10 69 0 92 3 98 15 7 11 35
15 123 17 l115 3 3 31 c5 54 -13 61 -131 57 -84 -2 -107 0 -117 12 -9 11 -33
15 -91 15 -43 0 -81 5 -84 10 -4 6 24 10 78 10 63 0 88 4 97 15 10 12 37 15
125 15 61 0 114 2 116 4 3 3 3 23 1 45 l-4 41 -113 0 c-88 0 -115 3 -125 15
-9 11 -33 15 -91 15 -43 0 -81 5 -84 10 -4 6 24 10 78 10 62 0 88 4 97 15 9
11 40 15 123 17 l112 3 3 36 3 37 -109 3 c-74 3 -115 9 -126 18 -10 9 -49 16
-97 19 -96 6 -105 22 -11 22 45 1 80 7 107 20 22 11 48 19 58 20 9 0 17 3 17
8 0 4 12 15 25 25 22 16 28 16 60 3 19 -8 35 -20 35 -25 0 -6 9 -11 20 -11 16
0 20 7 20 34 l0 33 -110 5 c-84 3 -114 8 -128 21 -14 13 -38 17 -101 17 -52 0
-80 4 -76 10 3 5 41 10 84 10 58 0 82 4 91 15 10 12 37 15 126 15 l114 0 0 45
0 45 -114 0 c-92 0 -115 3 -120 15 -4 12 -25 15 -96 15 -58 0 -89 4 -85 10 3
5 43 10 89 10 45 0 87 5 93 11 13 13 48 17 151 18 l82 1 0 45 0 45 -114 0
c-92 0 -115 3 -120 15 -4 12 -25 15 -96 15 -58 0 -89 4 -85 10 3 6 44 10 89
10 62 0 87 4 96 15 10 12 37 15 120 15 l107 0 6 30 c12 57 6 60 -118 60 -88 0
-115 3 -125 15 -9 11 -33 15 -91 15 -46 0 -79 4 -79 10 0 6 35 10 84 10 61 0
87 4 96 15 9 11 40 15 123 17 121 3 127 7 113 64 -6 24 -8 24 -120 24 -82 0
-117 4 -124 13 -14 17 -450 21 -469 5 -10 -8 -13 -266 -13 -1216 l0 -1206 -72
-73 -72 -73 -186 0 c-186 0 -186 0 -208 -25 -33 -38 -77 -33 -101 12 -28 55
69 105 101 53 12 -19 24 -20 203 -20 l190 0 62 63 63 63 2 1224 3 1225 244 3
c169 2 249 6 259 14 9 8 46 11 107 9 104 -3 135 7 135 44 0 53 -4 55 -122 55
-81 0 -113 4 -124 14 -11 12 -63 14 -276 14 -145 0 -280 -2 -302 -5 -69 -10
-66 36 -66 -980 l0 -908 -140 -140 c-128 -128 -140 -143 -140 -176 0 -58 -50
-88 -95 -55 -25 18 -25 74 1 93 10 8 32 13 47 11 24 -3 47 16 167 137 l140
140 0 953 0 952 329 0 c209 0 332 4 336 10 4 6 55 10 120 10 126 0 131 3 119
66 l-6 34 -113 0 c-82 0 -114 3 -117 13 -4 9 -72 12 -298 12 -292 0 -293 0
-307 -22 -33 -50 -123 -15 -109 41 13 54 82 70 106 25 10 -18 24 -19 305 -19
185 0 296 4 300 10 4 6 55 10 121 10 129 0 113 -10 150 94 38 106 183 222 302
241 l42 7 0 114 c0 93 3 116 15 120 12 5 15 34 15 172 l0 166 105 106 105 107
0 150 c0 150 0 151 -25 167 -35 23 -36 82 -1 97 56 26 107 -21 80 -73 -7 -14
-20 -28 -29 -32 -14 -5 -16 -28 -14 -167 l1 -161 -106 -104 -107 -103 6 -158
c3 -87 10 -160 15 -163 5 -3 11 -57 12 -120 l3 -115 45 0 45 0 5 115 5 115 30
0 30 0 5 -115 5 -115 45 0 45 0 3 110 c1 60 7 114 12 119 6 6 10 235 10 601
l0 591 -36 37 c-20 20 -32 37 -27 37 5 0 24 -16 43 -35 l33 -34 5 -593 c4
-480 7 -595 18 -603 10 -7 14 -42 16 -120 l3 -110 39 -3 c24 -2 42 2 47 10 5
7 9 59 9 115 0 57 4 105 10 108 6 4 10 102 10 260 0 158 4 256 10 260 12 7 11
18 10 -263 -1 -185 2 -228 14 -247 11 -16 16 -55 18 -132 l3 -108 43 -3 42 -3
0 116 c0 94 3 117 15 121 13 5 15 34 15 176 0 103 -4 177 -11 190 -8 14 -8 23
0 31 6 6 11 35 11 63 0 68 19 83 22 17 1 -26 0 -138 -2 -249 l-2 -200 37 -36
38 -35 -22 -30 c-18 -24 -22 -40 -19 -94 l3 -64 43 -3 42 -3 0 116 c0 94 3
117 15 121 13 5 15 44 15 259 0 159 4 256 10 260 7 4 10 -83 10 -253 0 -222 2
-261 15 -266 12 -4 15 -27 15 -121 l0 -116 43 3 42 3 3 110 c2 81 7 114 18
126 12 14 15 45 14 165 -3 274 0 354 10 354 6 0 10 -93 10 -259 0 -160 4 -261
10 -263 5 -1 11 -52 12 -111 1 -59 5 -112 9 -118 3 -6 24 -9 45 -7 l39 3 3
110 c2 82 7 113 19 127 13 15 15 47 11 244 -5 232 -2 278 13 268 5 -3 9 -119
9 -259 0 -154 4 -255 10 -257 5 -1 11 -55 12 -118 l3 -115 45 0 45 0 3 110 c2
81 7 114 18 126 12 14 15 49 14 200 -2 291 -1 321 10 314 6 -4 10 -102 10
-261 0 -157 4 -254 10 -254 5 0 11 -50 12 -117 l3 -118 39 -3 c24 -2 42 2 47
10 5 7 9 61 9 119 0 86 3 108 15 113 13 5 15 44 16 263 1 150 5 239 9 213 4
-25 8 -142 9 -260 1 -130 5 -216 11 -218 6 -2 10 -38 11 -80 0 -42 3 -95 7
-117 7 -39 9 -40 47 -40 l40 0 3 115 c2 71 7 117 14 121 8 5 12 172 15 601 l3
593 66 63 65 62 169 0 168 0 119 -115 c65 -63 121 -115 126 -115 4 0 7 23 7
50 0 41 5 56 25 75 l24 25 231 0 c217 0 231 -1 250 -20 11 -11 20 -30 20 -42
1 -13 2 -166 3 -340 l2 -317 55 -56 54 -55 98 0 c90 0 99 2 122 25 32 32 50
32 82 0 18 -19 23 -31 19 -48 -17 -55 -71 -67 -111 -23 -24 25 -30 26 -122 26
l-96 0 -52 51 c-51 50 -53 51 -75 35 -20 -14 -58 -16 -254 -16 -229 0 -232 0
-253 23 -21 23 -22 30 -22 293 l0 269 -128 133 -128 132 -164 0 -163 0 -64
-65 -63 -64 3 -466 c3 -478 4 -484 40 -485 16 0 6 -39 -13 -45 -16 -5 -20 -16
-22 -53 -2 -80 2 -126 12 -132 5 -3 11 -57 12 -120 l3 -115 45 0 45 0 3 118 3
118 32 -3 32 -3 5 -115 5 -115 45 0 45 0 3 118 c1 67 7 117 12 117 6 0 10 64
10 163 l0 162 -106 105 -105 105 3 158 c2 152 2 158 -20 173 -53 37 -7 133 50
103 46 -24 51 -68 12 -104 l-26 -24 7 -153 7 -153 99 -100 99 -100 6 -165 c3
-91 10 -170 15 -176 4 -5 10 -59 11 -119 l3 -110 50 -11 c28 -6 62 -16 77 -22
21 -9 27 -8 32 4 3 8 13 14 22 14 12 0 15 -6 10 -24 -5 -19 2 -30 38 -59 52
-43 100 -115 126 -188 l18 -54 121 -3 c70 -1 121 -7 121 -12 0 -6 109 -10 288
-10 l289 0 23 25 c48 51 121 9 104 -60 -12 -48 -78 -54 -114 -11 -11 14 -52
16 -300 16 -198 0 -289 -3 -292 -11 -2 -7 -48 -12 -118 -14 l-115 -3 -3 -41
c-3 -39 -2 -41 25 -41 16 0 39 7 51 16 20 14 26 14 45 1 12 -7 42 -17 67 -20
24 -3 46 -11 48 -16 3 -8 107 -11 327 -11 204 0 326 -4 330 -10 3 -5 6 -437 5
-958 l-1 -949 135 -131 c126 -122 138 -131 178 -134 35 -2 45 -8 56 -30 21
-44 -2 -82 -50 -86 -30 -3 -40 1 -53 22 -10 15 -15 35 -11 49 5 20 -16 45
-139 167 l-145 143 -2 901 c-1 496 0 920 1 944 l3 42 -316 0 c-197 0 -316 -4
-316 -10 0 -5 -50 -11 -117 -12 l-118 -3 -3 -42 -3 -43 116 0 c94 0 117 -3
121 -15 5 -13 43 -15 255 -15 l249 0 0 -27 c0 -16 0 -351 0 -747 l0 -718 24 6
c33 8 52 -15 36 -44 -9 -16 -18 -20 -36 -16 l-24 6 0 -454 0 -455 66 -65 c59
-59 71 -66 106 -66 25 0 41 5 44 15 4 8 14 15 24 15 10 0 20 -7 24 -15 4 -12
27 -15 117 -15 106 0 113 1 135 25 30 33 67 32 93 -1 27 -34 26 -50 -4 -79
-30 -31 -46 -31 -83 0 -29 25 -32 25 -212 25 l-183 0 -78 78 -79 77 -3 1210
-2 1210 -225 3 c-139 1 -233 -1 -245 -8 -11 -5 -67 -11 -125 -12 -114 -3 -120
-7 -106 -64 6 -24 8 -24 117 -24 88 0 111 -3 115 -15 5 -12 25 -15 90 -15 46
0 84 -4 84 -9 0 -4 -37 -11 -82 -14 -45 -3 -84 -10 -86 -16 -2 -7 -41 -11
-103 -11 -120 0 -139 -8 -139 -55 l0 -35 115 0 c94 0 117 -3 121 -15 5 -12 24
-15 84 -15 75 0 108 -11 74 -24 -9 -3 -47 -6 -85 -6 -38 0 -69 -4 -69 -10 0
-5 -50 -11 -117 -12 l-118 -3 -3 -42 -3 -43 116 0 c94 0 117 -3 121 -15 5 -12
25 -15 90 -15 49 0 84 -4 84 -10 0 -12 -3 -12 -92 -10 -50 1 -68 -2 -75 -14
-7 -12 -33 -16 -123 -18 l-115 -3 -3 -42 -3 -43 116 0 c94 0 117 -3 121 -15 5
-12 25 -15 90 -15 46 0 84 -4 84 -9 0 -14 -38 -20 -97 -14 -45 5 -58 3 -68
-10 -9 -13 -34 -17 -126 -19 l-114 -3 -3 -42 -3 -43 115 0 c63 0 117 -4 120
-9 3 -4 42 -10 86 -13 44 -3 83 -8 87 -11 14 -15 -12 -22 -88 -26 -43 -1 -79
-7 -79 -12 0 -4 -53 -10 -117 -11 l-118 -3 0 -40 0 -40 110 -3 c79 -2 114 -7
125 -17 12 -11 38 -15 89 -14 40 1 75 -2 78 -5 13 -13 -10 -19 -82 -21 -41 -2
-81 -8 -88 -13 -7 -6 -62 -13 -123 -14 l-109 -3 0 -40 0 -40 118 -3 c95 -2
117 -5 117 -17 0 -12 17 -15 86 -15 54 0 83 -4 79 -10 -3 -6 -41 -10 -85 -10
-60 0 -79 -3 -84 -15 -4 -12 -27 -15 -121 -15 l-115 0 0 -45 0 -45 119 0 c99
0 120 -3 125 -16 5 -12 19 -15 69 -14 84 3 97 2 97 -10 0 -6 -35 -10 -84 -10
-65 0 -85 -3 -90 -15 -4 -12 -27 -15 -121 -15 l-115 0 0 -45 0 -45 119 0 c96
0 120 -3 125 -15 4 -12 33 -15 171 -15 l165 0 0 -567 0 -568 -87 -87 c-85 -85
-87 -88 -57 -88 17 0 39 -7 50 -15 10 -8 22 -15 26 -15 4 0 29 23 56 50 l49
50 97 0 c90 0 97 2 118 25 15 17 32 25 54 25 38 0 57 -21 57 -62 0 -57 -66
-78 -105 -33 -20 23 -28 25 -113 25 l-92 0 -57 -55 -56 -55 -7 -150 -6 -150
489 0 c478 0 489 0 502 20 9 14 23 20 50 20 35 0 48 11 245 208 l207 207 0
367 0 367 -45 37 -45 36 -1 152 c-1 83 -4 183 -8 221 -5 61 -9 70 -26 70 -17
0 -21 -8 -25 -60 -4 -44 -9 -60 -20 -60 -11 0 -16 16 -20 60 -4 52 -8 60 -25
60 -17 0 -21 -9 -26 -70 -4 -38 -7 -137 -8 -218 l-1 -149 70 -67 c80 -78 75
-57 70 -304 -2 -127 -2 -127 24 -148 48 -38 24 -109 -37 -109 -55 0 -78 70
-35 109 20 20 21 28 19 198 l-2 178 -69 69 -70 69 0 224 0 224 -22 -3 c-22 -3
-23 -9 -32 -136 l-9 -133 27 -28 c37 -39 36 -85 -4 -106 -33 -17 -62 -9 -87
24 -19 24 -16 37 18 76 l31 35 -7 135 c-7 121 -9 135 -26 135 -10 0 -21 -4
-24 -10 -3 -5 -9 -128 -12 -272 -3 -145 -7 -265 -10 -268 -2 -2 -58 50 -123
115 l-120 120 0 99 0 100 -145 146 -145 147 0 266 0 266 -25 25 c-30 30 -32
69 -5 96 28 28 64 25 89 -6 27 -35 26 -44 -6 -86 l-28 -34 0 -257 1 -258 142
-142 142 -142 0 -105 0 -104 93 -93 c51 -51 99 -93 105 -93 14 0 17 224 6 391
l-7 97 -41 12 c-79 23 -123 72 -150 164 l-12 41 -59 5 c-44 4 -60 9 -60 20 0
11 16 16 60 20 52 4 60 8 60 25 0 17 -8 21 -60 25 -44 4 -60 9 -60 20 0 11 15
16 63 18 59 3 63 5 60 25 -3 20 -10 22 -66 25 -53 3 -63 6 -60 20 2 13 17 18
63 22 52 4 60 8 60 25 0 18 -8 20 -63 23 -53 3 -63 6 -60 20 2 13 17 18 63 22
52 4 60 8 60 25 0 17 -8 21 -60 25 -44 4 -60 9 -60 20 0 11 16 16 60 20 52 4
60 8 60 25 0 17 -8 21 -60 25 -44 4 -60 9 -60 20 0 11 16 16 60 20 52 4 60 8
60 25 0 17 -8 21 -60 25 -46 4 -61 9 -63 22 -3 14 7 17 60 20 55 3 63 5 63 23
0 18 -8 20 -63 23 -53 3 -63 6 -60 20 2 13 17 18 63 22 52 4 60 8 60 25 0 17
-8 21 -60 25 -44 4 -60 9 -60 20 0 11 16 16 60 20 52 4 60 8 60 25 0 17 -8 21
-60 25 -44 4 -60 9 -60 20 0 11 16 16 60 20 52 4 60 8 60 25 0 17 -8 21 -60
25 -46 4 -61 9 -63 22 -3 14 7 17 60 20 56 3 63 5 66 25 3 20 -1 22 -60 25
-50 2 -63 7 -66 20 -3 14 7 17 60 20 55 3 63 6 66 24 3 20 -3 21 -104 28 -59
4 -111 9 -116 12 -4 3 -8 75 -8 161 l0 156 110 112 c60 61 110 115 110 121 0
5 -30 40 -68 77 l-68 67 -291 0 -292 0 -25 -25 c-30 -30 -59 -32 -86 -5 -23
23 -26 58 -6 85 19 26 74 24 97 -3 17 -22 22 -22 311 -22 l293 0 90 -90 90
-90 -118 -118 -117 -117 0 -143 0 -143 102 3 101 3 10 30 c21 65 73 116 145
140 37 13 37 13 43 82 4 37 7 147 8 243 l1 175 -102 102 -103 103 -535 0 -535
0 -130 130 c-118 119 -133 130 -166 130 -42 0 -69 24 -69 62 0 31 29 58 63 58
35 0 57 -25 57 -65 0 -30 15 -49 130 -164 l130 -131 533 0 532 0 108 -108 107
-107 1 -180 c1 -99 4 -211 8 -250 5 -61 9 -70 26 -70 17 0 21 8 25 60 4 47 9
61 23 63 14 3 17 -5 17 -50 0 -59 11 -84 32 -75 18 6 28 125 28 327 0 133 -1
137 -25 160 -31 29 -33 72 -3 99 35 33 56 35 78 9 28 -34 26 -79 -6 -109 l-26
-24 5 -215 c3 -118 9 -223 12 -233 4 -10 15 -17 24 -15 24 5 29 96 30 501 l0
347 -89 92 -90 91 0 224 c0 218 -1 225 -22 242 -14 12 -21 29 -21 50 0 54 62
81 96 43 24 -27 21 -65 -8 -92 l-25 -23 0 -215 0 -215 90 -91 90 -92 1 -360
c1 -197 4 -390 8 -429 5 -61 9 -70 26 -70 17 0 21 8 25 60 4 46 9 61 22 63 14
3 17 -7 20 -60 3 -55 5 -63 23 -63 17 0 21 8 25 60 4 47 9 61 23 63 14 3 17
-4 17 -46 0 -63 7 -82 31 -82 15 0 18 9 21 63 2 47 7 62 18 62 11 0 16 -15 20
-57 6 -62 12 -73 34 -65 10 4 16 24 18 64 2 44 7 58 18 58 11 0 16 -14 18 -52
3 -52 24 -85 42 -67 5 5 10 34 12 64 2 42 7 56 20 58 14 3 17 -7 20 -60 3 -55
5 -63 23 -63 17 0 21 9 26 65 4 36 7 229 8 429 l1 364 90 91 90 92 0 215 0
216 -25 23 c-32 30 -33 73 -3 94 30 21 54 20 78 -4 27 -27 25 -62 -5 -90 l-25
-23 0 -226 0 -226 -85 -85 -85 -85 0 -415 c0 -228 4 -421 9 -429 5 -8 16 -11
25 -8 12 5 16 20 16 61 0 30 5 58 11 62 19 11 33 -15 31 -59 -3 -48 9 -73 31
-64 11 4 17 23 19 64 2 45 7 59 20 61 14 3 17 -7 20 -60 3 -55 5 -63 23 -63
17 0 21 8 25 60 4 47 9 61 23 63 15 3 17 -5 17 -58 0 -49 3 -62 18 -66 84 -27
153 -84 174 -144 8 -25 16 -30 61 -35 29 -4 70 -5 92 -3 l40 3 3 160 3 159
-128 128 -127 127 3 129 2 129 -31 31 c-35 35 -34 63 2 95 27 23 44 22 73 -8
32 -31 32 -60 0 -89 -24 -22 -25 -28 -25 -147 l0 -124 125 -125 125 -125 0
-186 0 -186 -61 -7 c-34 -3 -80 -6 -101 -6 -27 0 -38 -4 -36 -12 4 -12 24 -19
91 -33 39 -8 38 -45 -2 -45 -57 0 -91 -12 -91 -31 0 -16 8 -19 60 -19 53 0 60
-2 60 -20 0 -16 -8 -19 -62 -22 -55 -3 -63 -5 -63 -23 0 -18 8 -20 63 -23 53
-3 62 -6 62 -22 0 -16 -9 -19 -62 -22 -55 -3 -63 -5 -63 -23 0 -18 8 -20 63
-23 53 -3 62 -6 62 -22 0 -16 -9 -19 -62 -22 -55 -3 -63 -5 -63 -23 0 -18 8
-20 63 -23 53 -3 62 -6 62 -22 0 -16 -9 -19 -62 -22 -55 -3 -63 -5 -63 -23 0
-18 8 -20 63 -23 53 -3 62 -6 62 -22 0 -16 -9 -19 -62 -22 -55 -3 -63 -5 -63
-23 0 -18 8 -20 63 -23 53 -3 62 -6 62 -22 0 -16 -9 -19 -62 -22 -55 -3 -63
-5 -63 -23 0 -18 8 -20 63 -23 54 -3 62 -6 62 -22 0 -18 -7 -20 -59 -20 -45 0
-60 -4 -65 -16 -10 -27 3 -34 65 -34 52 0 59 -2 59 -20 0 -16 -8 -19 -62 -22
-55 -3 -63 -5 -63 -23 0 -18 8 -20 63 -23 53 -3 62 -6 62 -22 0 -16 -9 -19
-62 -22 -55 -3 -63 -5 -63 -23 0 -18 8 -20 63 -23 53 -3 62 -6 62 -22 0 -16
-9 -19 -62 -22 -55 -3 -63 -5 -63 -23 0 -17 8 -21 60 -25 47 -4 61 -9 63 -23
3 -15 -5 -17 -58 -17 -40 0 -62 -4 -64 -12 -2 -7 -9 -33 -16 -58 -15 -56 -78
-119 -140 -140 l-45 -15 -3 -242 c-1 -134 1 -243 6 -243 4 0 49 42 100 93 l92
92 0 105 0 105 145 145 145 145 0 261 0 262 -25 16 c-50 33 -23 116 37 116 57
0 81 -85 33 -116 l-25 -16 0 -272 0 -271 -140 -140 -140 -140 0 -105 0 -105
-127 -123 -128 -123 -6 271 c-6 273 -10 300 -43 287 -24 -9 -24 -285 0 -294
41 -16 36 -94 -8 -109 -71 -24 -121 58 -63 104 28 22 30 46 19 210 -6 78 -10
92 -24 92 -10 0 -21 -8 -25 -17 -3 -10 -9 -114 -11 -231 l-5 -213 -71 -67 -70
-67 4 -166 c2 -115 7 -171 16 -182 7 -8 37 -27 67 -43 57 -28 59 -32 49 -81
-5 -24 -13 -31 -45 -40 -29 -8 -41 -7 -49 2 -5 6 -28 17 -50 24 -64 19 -82 82
-35 123 25 22 25 22 25 197 l0 174 70 72 69 72 0 99 c0 54 -2 154 -6 222 -5
118 -6 123 -27 120 -18 -3 -21 -10 -24 -66 -3 -53 -6 -63 -20 -60 -13 2 -18
17 -22 63 -4 52 -8 60 -25 60 -19 0 -20 -8 -23 -216 l-2 -215 -50 -49 -50 -49
0 -358 0 -357 207 -211 c194 -198 209 -210 243 -210 24 0 43 -7 55 -20 18 -20
31 -20 602 -20 l583 0 0 2980 0 2980 -2684 0 -2684 0 -6 -24 c-11 -46 -76 -41
-76 5 0 19 -62 19 -2565 19 l-2565 0 0 -2980z m4496 2948 c7 -10 -93 -9 -111
1 -12 7 63 18 88 13 9 -3 20 -9 23 -14z m1634 -88 c0 -6 -28 -10 -65 -10 -37
0 -65 4 -65 10 0 6 28 10 65 10 37 0 65 -4 65 -10z m-2635 -70 c-5 -8 -11 -8
-17 -2 -6 6 -7 16 -3 22 5 8 11 8 17 2 6 -6 7 -16 3 -22z m1023 -42 c-1 -36
-2 -43 -5 -20 l-4 32 -60 0 c-33 0 -59 4 -59 10 0 6 27 10 60 10 33 0 60 4 60
10 0 6 2 10 5 10 3 0 4 -24 3 -52z m1621 26 c9 -8 -7 -12 -71 -16 -57 -3 -68
-1 -68 12 0 13 11 15 68 12 37 -2 69 -6 71 -8z m784 -79 l47 -50 224 -2 224
-2 37 29 c35 28 53 30 83 7 20 -16 14 -64 -10 -81 -31 -22 -42 -20 -69 9 l-24
25 -230 0 -230 1 -35 33 c-55 53 -117 122 -90 101 14 -11 46 -42 73 -70z
m-378 39 c27 10 62 -4 74 -30 24 -55 -52 -101 -92 -56 -10 11 -16 33 -14 59 0
24 4 37 8 31 4 -6 15 -8 24 -4z m-2541 -30 c10 -37 -2 -63 -31 -70 -32 -9 -55
5 -67 40 -12 32 13 55 60 56 26 0 33 -5 38 -26z m-448 -49 c-8 -8 -18 -15 -22
-15 -3 0 -1 7 6 15 7 8 17 15 22 15 5 0 3 -7 -6 -15z m-491 -6 c9 -13 -41 -59
-64 -59 -33 0 -32 14 1 42 35 29 53 34 63 17z m2879 -50 c-16 -16 -52 -37 -79
-47 l-50 -18 -9 -127 -8 -127 32 -30 c24 -23 31 -36 26 -53 -3 -12 -6 -25 -6
-28 0 -3 -12 -11 -26 -17 -19 -9 -30 -9 -47 -1 -45 24 -50 64 -12 99 25 23 25
26 23 154 l-3 131 -30 0 c-30 0 -30 0 -33 -63 -4 -84 -27 -81 -27 4 0 59 0 59
-30 59 l-30 0 -3 -130 c-3 -129 -2 -131 23 -155 38 -35 33 -75 -12 -99 -17 -8
-29 -9 -43 -1 -45 24 -46 75 0 113 19 16 21 25 16 80 -4 34 -9 93 -12 130 -6
67 -6 68 -32 65 -26 -3 -27 -6 -30 -65 -2 -47 -7 -63 -17 -63 -12 0 -15 15
-15 66 l0 65 -27 -3 c-26 -3 -28 -6 -30 -58 -2 -30 -5 -90 -9 -132 -6 -76 -6
-78 19 -89 47 -21 45 -91 -2 -107 -67 -23 -110 54 -55 97 l25 20 -5 133 c-2
73 -5 134 -5 136 -1 2 -13 2 -28 0 -27 -3 -28 -6 -31 -65 -2 -35 -7 -63 -12
-63 -5 0 -10 28 -12 63 -3 62 -3 62 -33 62 l-30 0 -3 -134 c-3 -132 -2 -133
23 -157 32 -30 30 -60 -6 -87 -23 -16 -30 -17 -50 -7 -49 26 -52 64 -9 105 27
25 30 35 30 86 0 32 -4 61 -10 64 -5 3 -10 35 -10 71 l0 65 -27 -3 c-27 -3
-28 -6 -31 -65 -2 -47 -7 -63 -17 -63 -12 0 -15 15 -15 66 l0 65 -27 -3 -28
-3 -9 -129 -9 -129 26 -22 c35 -27 37 -77 5 -99 -29 -21 -40 -20 -66 4 -29 27
-28 52 4 89 l26 32 -7 129 c-7 126 -8 130 -30 130 -24 0 -35 -29 -35 -96 0
-61 -19 -36 -22 29 -3 62 -3 62 -33 62 l-30 0 -3 -134 c-3 -131 -2 -133 23
-157 31 -28 32 -51 3 -81 -27 -28 -48 -29 -76 -3 -30 29 -27 57 9 91 l31 29
-8 128 c-9 123 -10 127 -33 130 -31 5 -41 -12 -41 -75 0 -29 -4 -53 -10 -53
-6 0 -10 26 -10 58 0 32 -5 63 -12 70 -13 13 -48 13 642 15 396 2 427 3 460
21 19 10 44 29 55 41 11 12 22 20 24 18 3 -2 -8 -17 -25 -34z m-1319 -23 c11
-7 44 -17 73 -21 29 -4 49 -11 46 -16 -3 -6 -8 -36 -10 -67 -2 -31 -6 -87 -10
-125 -6 -66 -5 -68 26 -97 27 -25 31 -35 25 -57 -8 -33 -21 -43 -57 -43 -54 0
-73 84 -23 103 13 6 15 25 13 143 -3 146 -3 147 -58 158 -27 5 -72 35 -55 36
6 0 19 -6 30 -14z m-162 -103 c3 -5 -54 -7 -126 -5 -214 4 -234 8 -50 10 94 1
174 -1 176 -5z m32 -33 c3 -6 -1 -7 -9 -4 -18 7 -21 14 -7 14 6 0 13 -4 16
-10z m4920 1 c7 -12 -12 -24 -25 -16 -11 7 -4 25 10 25 5 0 11 -4 15 -9z
m-5425 -103 l-80 -83 0 -297 0 -297 -26 -20 c-25 -20 -39 -21 -245 -21 -232 0
-263 5 -273 46 -4 13 -10 24 -14 24 -4 0 -39 -31 -77 -70 l-69 -70 -99 0 c-94
0 -100 -1 -119 -25 -25 -32 -71 -34 -92 -3 -20 28 -20 47 -1 72 22 29 73 25
97 -7 19 -26 24 -27 110 -27 l91 0 86 85 86 85 4 317 c3 270 6 319 19 332 13
14 51 16 250 16 234 0 234 0 253 -24 10 -13 19 -36 19 -52 0 -16 3 -29 8 -29
4 0 36 29 72 65 36 35 69 64 73 65 4 0 -28 -37 -73 -82z m-1455 -13 c0 -38
-37 -48 -55 -15 -14 27 4 52 34 48 16 -2 21 -10 21 -33z m1733 -12 c-5 -25
-28 -28 -28 -4 0 12 6 21 16 21 9 0 14 -7 12 -17z m552 -398 c0 -19 -20 -29
-31 -18 -14 14 0 43 17 36 8 -3 14 -11 14 -18z m-3546 -92 c-17 -17 -17 -18 2
-22 10 -2 25 -8 32 -13 8 -7 12 -7 12 1 0 6 -4 11 -9 11 -5 0 -7 9 -4 20 3 12
11 19 17 17 21 -7 17 -45 -8 -72 -15 -16 -26 -23 -26 -18 0 6 -9 13 -20 16
-30 8 -24 77 7 77 12 0 11 -3 -3 -17z m8836 3 c0 -3 -4 -8 -10 -11 -5 -3 -10
-1 -10 4 0 6 5 11 10 11 6 0 10 -2 10 -4z m-4090 -51 c13 -16 6 -35 -15 -35
-18 0 -28 17 -21 35 7 19 20 19 36 0z m-3200 -45 c16 -31 -4 -62 -38 -58 -21
2 -28 9 -30 32 -5 45 47 65 68 26z m-280 -20 c0 -5 -4 -10 -10 -10 -5 0 -10 5
-10 10 0 6 5 10 10 10 6 0 10 -4 10 -10z m6375 -25 c0 -28 -29 -25 -33 3 -3
19 0 23 15 20 10 -2 18 -12 18 -23z m-8605 -90 c0 -8 -4 -15 -9 -15 -13 0 -22
16 -14 24 11 11 23 6 23 -9z m3690 -35 c0 -5 -4 -10 -10 -10 -5 0 -10 5 -10
10 0 6 5 10 10 10 6 0 10 -4 10 -10z m858 -31 c-2 -6 -8 -10 -13 -10 -5 0 -11
4 -13 10 -2 6 4 11 13 11 9 0 15 -5 13 -11z m3662 -64 c0 -8 -4 -15 -9 -15
-13 0 -22 16 -14 24 11 11 23 6 23 -9z m1300 -10 c0 -8 -4 -15 -10 -15 -5 0
-10 7 -10 15 0 8 5 15 10 15 6 0 10 -7 10 -15z m-1530 -16 c0 -5 -7 -9 -15 -9
-15 0 -20 12 -9 23 8 8 24 -1 24 -14z m1048 10 c-2 -6 -8 -10 -13 -10 -5 0
-11 4 -13 10 -2 6 4 11 13 11 9 0 15 -5 13 -11z m-1488 -44 c0 -8 -7 -15 -15
-15 -16 0 -20 12 -8 23 11 12 23 8 23 -8z m390 -140 c0 -8 -7 -15 -15 -15 -16
0 -20 12 -8 23 11 12 23 8 23 -8z m-4227 -57 c6 -19 -3 -38 -18 -38 -18 0 -28
17 -21 35 7 18 33 20 39 3z m5775 -119 c-2 -6 -8 -10 -13 -10 -5 0 -11 4 -13
10 -2 6 4 11 13 11 9 0 15 -5 13 -11z m-498 -24 c0 -8 -7 -15 -15 -15 -16 0
-20 12 -8 23 11 12 23 8 23 -8z m-8002 -27 c2 -19 -2 -28 -18 -33 -24 -8 -50
10 -50 35 0 24 10 31 40 28 19 -2 26 -10 28 -30z m-228 -18 c27 -27 25 -47 -9
-79 l-30 -28 2 -131 c0 -72 -2 -135 -6 -138 -4 -4 -7 56 -7 134 0 129 -2 144
-20 162 -24 24 -26 63 -4 84 21 22 50 20 74 -4z m5618 -32 c-3 -7 -11 -13 -18
-13 -7 0 -15 6 -17 13 -3 7 4 12 17 12 13 0 20 -5 18 -12z m3842 2 c0 -5 -7
-10 -15 -10 -8 0 -15 5 -15 10 0 6 7 10 15 10 8 0 15 -4 15 -10z m-1735 -350
c0 -29 -32 -41 -41 -16 -9 24 4 48 23 44 12 -2 18 -12 18 -28z m-7792 -15 c-3
-9 -8 -14 -10 -11 -3 3 -2 9 2 15 9 16 15 13 8 -4z m-75 -78 c-24 -24 -45 -42
-47 -40 -6 5 71 83 81 83 5 0 -11 -20 -34 -43z m6862 -32 c0 -8 -7 -15 -15
-15 -8 0 -15 7 -15 15 0 8 7 15 15 15 8 0 15 -7 15 -15z m-6927 -30 c-3 -9 -8
-14 -10 -11 -3 3 -2 9 2 15 9 16 15 13 8 -4z m1644 -39 c-4 -9 -11 -16 -17
-16 -17 0 -24 31 -9 41 18 11 34 -5 26 -25z m-1677 0 c0 -2 -7 -7 -16 -10 -8
-3 -12 -2 -9 4 6 10 25 14 25 6z m7238 -15 c20 -12 10 -46 -14 -49 -25 -4 -40
24 -23 44 13 16 19 17 37 5z m2256 -10 c3 -5 0 -14 -8 -20 -10 -9 -15 -8 -19
3 -9 22 15 37 27 17z m-2872 -133 c-9 -9 -15 -9 -24 0 -10 10 -10 15 2 22 20
12 38 -6 22 -22z m-7262 -163 c0 -8 -7 -15 -15 -15 -8 0 -15 7 -15 15 0 8 7
15 15 15 8 0 15 -7 15 -15z m6888 -8 c2 -10 -3 -17 -12 -17 -18 0 -29 16 -21
31 9 14 29 6 33 -14z m-6346 -564 c27 -24 23 -67 -7 -87 l-25 -16 0 -269 0
-268 46 -46 c25 -26 42 -47 37 -47 -5 0 -27 19 -50 43 l-42 42 -3 266 -3 265
-27 33 c-32 38 -34 48 -12 79 18 26 60 29 86 5z m2516 -131 c2 -7 -3 -12 -12
-12 -9 0 -16 7 -16 16 0 17 22 14 28 -4z m4112 -146 c0 -21 -21 -31 -30 -15
-5 7 -6 17 -4 21 9 14 34 9 34 -6z m-6550 -476 c0 -5 -2 -10 -4 -10 -3 0 -8 5
-11 10 -3 6 -1 10 4 10 6 0 11 -4 11 -10z m140 -143 c0 -5 -29 19 -65 54 -36
34 -65 67 -65 72 0 4 29 -20 65 -55 36 -34 65 -66 65 -71z m8972 -19 c-9 -9
-15 -9 -24 0 -10 10 -10 15 2 22 20 12 38 -6 22 -22z m-814 -232 c2 -10 -2
-22 -9 -26 -20 -13 -39 0 -39 27 0 20 4 24 22 21 13 -2 24 -11 26 -22z m-8248
-1 c0 -8 -7 -15 -15 -15 -8 0 -15 7 -15 15 0 8 7 15 15 15 8 0 15 -7 15 -15z
m9130 -30 c0 -8 -7 -15 -15 -15 -8 0 -15 7 -15 15 0 8 7 15 15 15 8 0 15 -7
15 -15z m-7170 -280 c0 -8 -4 -15 -10 -15 -5 0 -10 7 -10 15 0 8 5 15 10 15 6
0 10 -7 10 -15z m7278 -26 c-2 -6 -8 -10 -13 -10 -5 0 -11 4 -13 10 -2 6 4 11
13 11 9 0 15 -5 13 -11z m-1978 -114 c0 -8 -7 -15 -15 -15 -8 0 -15 7 -15 15
0 8 7 15 15 15 8 0 15 -7 15 -15z m-196 -123 c9 -14 -9 -31 -23 -23 -7 5 -10
14 -7 20 8 13 23 14 30 3z m-5269 -102 c3 -5 -1 -10 -9 -10 -9 0 -16 5 -16 10
0 6 4 10 9 10 6 0 13 -4 16 -10z m6713 -283 c4 -21 -27 -35 -38 -17 -12 19 0
42 19 38 9 -2 17 -11 19 -21z m500 -38 c-2 -6 -8 -10 -13 -10 -5 0 -11 4 -13
10 -2 6 4 11 13 11 9 0 15 -5 13 -11z m-806 -34 c0 -5 -5 -11 -11 -13 -6 -2
-11 4 -11 13 0 9 5 15 11 13 6 -2 11 -8 11 -13z m-7862 -325 c0 -5 -4 -10 -10
-10 -5 0 -10 5 -10 10 0 6 5 10 10 10 6 0 10 -4 10 -10z"/>
<path d="M4164 3845 c-105 -24 -181 -79 -228 -165 -57 -105 -56 -65 -55 -1213
0 -996 1 -1061 18 -1116 30 -98 97 -175 191 -220 l55 -26 1080 -3 c1144 -3
1150 -3 1231 44 61 35 136 122 159 185 20 53 20 79 20 1136 0 852 -3 1085 -12
1095 -7 6 -13 23 -13 38 -1 90 -117 208 -235 238 -62 16 -2145 23 -2211 7z
m-87 -243 c26 -16 19 -70 -11 -83 -47 -22 -89 28 -59 70 14 21 48 27 70 13z
m1063 -27 c0 -8 -7 -15 -15 -15 -8 0 -15 7 -15 15 0 8 7 15 15 15 8 0 15 -7
15 -15z m-480 -170 c0 -8 -7 -15 -15 -15 -16 0 -20 12 -8 23 11 12 23 8 23 -8z
m824 -201 c20 -8 20 -28 0 -44 -12 -11 -18 -10 -31 3 -13 13 -14 19 -3 31 14
18 13 18 34 10z m650 -70 c8 -21 -1 -34 -24 -34 -22 0 -34 15 -26 35 7 20 42
19 50 -1z m-634 -238 c165 -5 222 -17 291 -63 72 -48 109 -127 109 -236 0 -41
-7 -94 -16 -120 -22 -64 -84 -131 -152 -163 -49 -24 -73 -28 -169 -32 l-113
-4 -2 -167 -3 -166 -102 -3 -103 -3 -1 163 c-1 90 -1 296 1 459 1 197 -1 303
-9 316 -15 28 -8 32 57 27 31 -2 127 -6 212 -8z m-659 -136 c26 -74 73 -207
104 -295 80 -227 166 -476 172 -503 5 -23 5 -23 -102 -20 l-107 3 -14 35 c-7
19 -23 68 -34 108 -23 74 -33 85 -56 55 -12 -17 -14 -17 -34 5 -19 20 -29 22
-138 22 -64 0 -122 -4 -128 -8 -6 -4 -26 -55 -44 -114 l-34 -108 -108 0 c-69
0 -108 4 -108 11 0 5 30 94 66 197 125 353 175 497 195 557 11 33 32 91 46
128 l25 68 126 -3 126 -3 47 -135z m1437 -343 l2 -478 -102 3 -103 3 -3 464
c-2 341 1 467 9 478 9 10 34 13 103 11 l91 -3 3 -478z m-1070 -89 c20 -42 1
-78 -41 -78 -44 0 -70 28 -61 64 13 52 79 61 102 14z m812 -33 c0 -8 -7 -15
-15 -15 -8 0 -15 7 -15 15 0 8 7 15 15 15 8 0 15 -7 15 -15z m-200 -435 c0 -5
-5 -12 -11 -16 -14 -8 -33 11 -25 25 7 11 36 4 36 -9z m388 -37 c-5 -25 -28
-28 -28 -4 0 12 6 21 16 21 9 0 14 -7 12 -17z m-878 -138 c0 -8 -7 -15 -15
-15 -16 0 -20 12 -8 23 11 12 23 8 23 -8z m600 -500 c0 -8 -7 -15 -15 -15 -8
0 -15 7 -15 15 0 8 7 15 15 15 8 0 15 -7 15 -15z"/>
<path d="M5450 2585 l0 -135 63 0 c115 1 177 51 177 145 0 87 -52 125 -170
125 l-70 0 0 -135z"/>
<path d="M4655 2698 c-2 -7 -25 -85 -51 -173 -26 -88 -49 -166 -52 -172 -3
-10 23 -13 112 -13 64 0 116 3 116 8 0 21 -106 362 -113 362 -4 0 -9 -6 -12
-12z m33 -242 c-2 -13 -10 -21 -23 -21 -23 0 -33 34 -14 45 20 13 40 -1 37
-24z"/>
<path d="M1128 3197 c-57 -24 -86 -53 -109 -105 -17 -39 -18 -80 -18 -615 -1
-595 1 -613 43 -670 46 -62 108 -81 240 -71 68 6 92 11 105 26 21 24 45 23 82
-4 30 -23 35 -23 422 -27 281 -2 402 0 431 9 66 19 111 54 134 104 22 45 22
53 22 628 0 544 -2 586 -19 623 -22 50 -70 91 -119 104 -21 6 -276 11 -604 13
-530 3 -570 2 -610 -15z m1006 -418 c-3 -5 -10 -7 -15 -3 -5 3 -7 10 -3 15 3
5 10 7 15 3 5 -3 7 -10 3 -15z m-204 -130 c50 -27 90 -52 90 -54 0 -2 -17 -13
-37 -26 -21 -12 -61 -37 -90 -56 -61 -39 -71 -40 -75 -10 -3 22 -4 22 -215 25
l-213 2 0 59 0 59 37 7 c21 4 41 12 45 18 6 9 11 8 18 -3 7 -12 37 -15 162
-15 149 0 153 1 163 23 5 12 13 22 18 22 4 0 48 -23 97 -51z m-330 -234 l0
-25 210 0 210 0 0 -65 0 -65 -210 0 c-203 0 -210 -1 -210 -20 0 -12 -7 -20
-16 -20 -19 0 -184 98 -184 109 0 9 170 109 188 110 6 1 12 -10 12 -24z m-375
-106 c0 -7 -8 -15 -17 -17 -18 -3 -25 18 -11 32 10 10 28 1 28 -15z"/>
<path d="M8141 3169 c-26 -19 -50 -47 -62 -74 -19 -42 -19 -68 -17 -638 l3
-593 27 -41 c16 -25 44 -49 71 -62 44 -21 49 -21 638 -19 659 3 625 0 683 71
l31 39 3 609 c3 648 4 630 -45 685 -48 55 -32 54 -686 54 l-604 0 -42 -31z
m284 -69 c0 -33 -40 -41 -50 -11 -9 28 2 43 28 39 16 -2 22 -10 22 -28z m881
-21 c10 -17 -13 -36 -27 -22 -12 12 -4 33 11 33 5 0 12 -5 16 -11z m-108 -352
c2 -10 -3 -17 -12 -17 -18 0 -29 16 -21 31 9 14 29 6 33 -14z m-60 -119 c8 -8
12 -61 12 -175 0 -150 -1 -163 -19 -173 -27 -14 -685 -14 -712 0 -18 10 -19
23 -19 173 0 114 4 167 12 175 17 17 709 17 726 0z m-363 -378 c116 0 236 2
268 6 73 7 107 0 107 -25 0 -10 -7 -22 -16 -25 -20 -8 -698 -8 -718 0 -19 7
-21 40 -3 48 6 3 44 3 82 1 39 -3 165 -5 280 -5z m411 -121 c8 -14 -11 -33
-25 -25 -11 7 -4 36 9 36 5 0 12 -5 16 -11z m-801 -40 c0 -7 -8 -15 -17 -17
-18 -3 -25 18 -11 32 10 10 28 1 28 -15z m-220 -89 c0 -18 -6 -26 -23 -28 -13
-2 -25 3 -28 12 -10 26 4 48 28 44 17 -2 23 -10 23 -28z"/>
<path d="M8450 2435 l0 -135 325 0 325 0 0 135 0 135 -325 0 -325 0 0 -135z
m470 89 c0 -14 -21 -19 -33 -7 -9 9 13 34 24 27 5 -3 9 -12 9 -20z m-99 0 c44
-22 79 -114 44 -114 -10 0 -15 10 -15 34 0 61 -56 91 -116 63 -40 -20 -46 -4
-6 17 35 20 56 20 93 0z m-125 -95 c1 -61 48 -88 115 -65 40 14 40 14 23 -5
-27 -30 -94 -26 -125 9 -29 31 -51 77 -41 86 12 12 27 -1 28 -25z"/>
<path d="M8635 1701 c-3 -6 -8 -102 -12 -213 l-5 -203 51 -50 51 -49 0 -367 0
-366 -215 -213 c-118 -118 -215 -220 -215 -227 0 -10 97 -13 499 -13 275 0
502 4 505 8 3 5 -92 105 -210 223 l-214 214 0 375 0 376 45 44 45 44 -1 146
c-1 80 -4 174 -8 210 -5 56 -9 65 -26 65 -17 0 -21 -8 -25 -60 -4 -44 -9 -60
-20 -60 -11 0 -16 14 -18 58 -2 40 -8 60 -18 64 -22 8 -27 -2 -31 -59 -5 -95
-43 -92 -43 3 0 57 -1 60 -22 57 -21 -3 -23 -9 -26 -65 -3 -54 -6 -63 -22 -63
-16 0 -19 9 -22 62 -2 49 -7 63 -20 66 -9 2 -19 -2 -23 -7z m110 -1291 c-5 -8
-11 -8 -17 -2 -6 6 -7 16 -3 22 5 8 11 8 17 2 6 -6 7 -16 3 -22z m90 -140 c0
-8 -10 -16 -22 -18 -18 -3 -23 2 -23 18 0 16 5 21 23 18 12 -2 22 -10 22 -18z"/>
<path d="M3277 1643 c-4 -3 0 -15 10 -25 15 -17 15 -19 0 -36 -15 -17 -17 -65
-17 -483 l0 -465 25 -35 c17 -22 24 -42 20 -56 -4 -18 10 -40 65 -103 l71 -80
85 0 c46 0 84 3 84 6 0 3 -53 57 -117 120 l-118 113 -1 288 c-1 158 -2 299 -3
313 -3 68 0 258 5 283 l6 27 98 0 c55 0 102 4 105 10 4 6 55 10 120 10 94 0
114 3 119 16 8 20 -3 67 -18 76 -6 4 -57 8 -113 8 -57 0 -105 4 -108 10 -7 11
-307 14 -318 3z"/>
<path d="M6926 1635 c-4 -12 -27 -15 -121 -15 l-116 0 3 -42 3 -43 114 -3 c63
-1 121 -7 128 -13 7 -7 48 -10 103 -8 l91 4 -1 -460 0 -460 -100 -100 c-55
-55 -100 -108 -100 -118 0 -14 10 -17 64 -17 l64 0 96 98 95 97 1 531 c0 293
-3 539 -6 548 -9 23 -309 24 -318 1z m248 -93 c2 -4 1 -14 -4 -22 -7 -11 -12
-12 -21 -3 -6 6 -8 16 -5 22 8 13 23 14 30 3z"/>
<path d="M3410 1049 l0 -441 121 -123 121 -123 108 -4 c154 -4 150 1 150 -200
l0 -158 270 0 270 0 0 136 0 137 -105 107 -105 106 0 161 c0 130 -3 163 -15
173 -12 10 -15 37 -15 121 l0 109 -27 5 c-16 4 -39 9 -53 11 -127 27 -268 178
-286 307 -12 95 0 87 -128 87 -92 0 -115 3 -120 15 -4 12 -25 15 -96 15 l-90
0 0 -441z m334 40 c-3 -5 -10 -7 -15 -3 -5 3 -7 10 -3 15 3 5 10 7 15 3 5 -3
7 -10 3 -15z"/>
<path d="M6927 1470 c-5 -18 -13 -20 -79 -20 -54 -1 -69 -3 -55 -11 21 -12 22
-48 1 -56 -23 -8 -52 23 -36 39 21 21 13 29 -25 26 -37 -3 -38 -4 -49 -59 -32
-163 -148 -287 -308 -329 l-61 -15 -3 -105 c-1 -57 -7 -109 -12 -115 -5 -6
-10 -84 -11 -174 l-2 -164 -109 -110 -108 -111 0 -133 0 -133 290 0 290 0 0
155 c0 152 1 156 25 180 21 22 33 25 102 25 l79 0 127 127 127 128 -2 435 -3
435 -86 3 c-80 3 -87 1 -92 -18z m-27 -576 c0 -9 -5 -14 -12 -12 -18 6 -21 28
-4 28 9 0 16 -7 16 -16z m-647 -768 c7 -17 -18 -40 -33 -31 -5 3 -10 15 -10
26 0 23 35 27 43 5z"/>
<path d="M4287 1044 c-4 -4 -7 -53 -7 -109 0 -55 -4 -105 -9 -110 -5 -6 -12
-81 -16 -168 l-7 -158 106 -107 106 -108 0 -142 0 -142 55 0 55 0 0 408 c0
248 -4 412 -10 418 -5 5 -11 56 -12 114 l-3 105 -45 0 -45 0 -5 -110 -5 -110
-30 0 -30 0 -5 110 -5 110 -40 3 c-23 2 -44 0 -48 -4z m183 -359 c0 -8 -4 -15
-10 -15 -5 0 -10 7 -10 15 0 8 5 15 10 15 6 0 10 -7 10 -15z"/>
<path d="M4627 1044 c-4 -4 -7 -53 -7 -109 0 -79 -3 -105 -15 -115 -13 -11
-15 -70 -15 -416 l0 -404 671 0 671 0 -3 397 c-4 359 -6 400 -21 423 -14 19
-18 45 -18 122 0 97 0 98 -27 104 -47 12 -54 -2 -57 -116 -2 -66 -8 -106 -15
-108 -7 -2 -11 -47 -12 -135 -1 -73 -5 -181 -9 -242 -6 -104 -7 -99 -10 95 -5
279 -4 270 -17 278 -8 5 -13 47 -15 117 -3 107 -4 110 -27 113 -12 2 -34 1
-47 -2 -24 -6 -24 -9 -24 -116 0 -67 -4 -110 -10 -110 -6 0 -10 -83 -10 -227
0 -130 -4 -234 -10 -243 -6 -10 -10 53 -12 190 -2 270 -2 266 -15 282 -7 8
-13 57 -15 119 l-3 104 -45 0 -45 0 -3 -110 c-2 -60 -7 -112 -12 -115 -5 -3
-9 -108 -9 -234 0 -148 -3 -232 -10 -239 -12 -12 -14 41 -16 319 -1 93 -5 147
-13 156 -6 8 -12 58 -14 119 l-3 104 -40 0 -40 0 -7 -50 c-3 -27 -7 -78 -7
-112 -1 -35 -5 -63 -11 -63 -6 0 -10 -85 -10 -234 0 -129 -4 -237 -9 -240 -15
-9 -24 167 -16 310 6 114 5 138 -9 158 -11 17 -16 55 -18 128 l-3 103 -42 3
-43 3 0 -111 c0 -89 -3 -112 -15 -116 -13 -5 -15 -42 -15 -246 0 -157 -3 -237
-10 -233 -6 4 -10 93 -10 234 0 191 -2 231 -15 241 -12 10 -15 37 -15 122 l0
109 -42 -3 -43 -3 -3 -107 c-2 -78 -6 -109 -17 -118 -12 -10 -15 -52 -15 -241
0 -146 -4 -229 -10 -229 -6 0 -10 85 -10 234 0 199 -2 235 -15 240 -12 4 -15
27 -15 116 l0 111 -42 -3 -43 -3 -3 -104 c-2 -63 -8 -111 -15 -119 -10 -13
-14 -118 -17 -455 0 -10 -4 -15 -10 -12 -6 4 -10 93 -10 236 0 141 -4 229 -10
229 -5 0 -11 49 -12 113 l-3 112 -40 3 c-23 2 -44 0 -48 -4z m1240 -850 c-9
-9 -28 6 -21 18 4 6 10 6 17 -1 6 -6 8 -13 4 -17z m-987 -70 c0 -8 -5 -12 -10
-9 -6 4 -8 11 -5 16 9 14 15 11 15 -7z m784 -65 c-3 -5 -10 -7 -15 -3 -5 3 -7
10 -3 15 3 5 10 7 15 3 5 -3 7 -10 3 -15z"/>
<path d="M6147 1044 c-4 -4 -7 -56 -7 -116 l0 -109 -37 3 -38 3 -3 108 -3 107
-39 0 c-41 0 -54 -16 -22 -27 23 -9 32 -23 32 -55 0 -39 -10 -58 -31 -58 -15
0 -19 -7 -19 -32 0 -17 -7 -40 -16 -50 -15 -16 -17 -65 -22 -418 l-5 -400 57
0 56 0 0 131 c0 72 4 138 9 147 5 9 52 62 105 117 l96 100 0 162 c0 96 -4 163
-10 165 -5 2 -11 53 -12 113 l-3 110 -40 3 c-23 2 -44 0 -48 -4z m-64 -326 c7
-21 -4 -38 -23 -38 -23 0 -34 16 -26 35 7 18 43 20 49 3z"/>
</g>
</svg>
